<?xml version="1.0" encoding="UTF-8"?>
<!DOCTYPE svg PUBLIC "-//W3C//DTD SVG 1.1//EN" "http://www.w3.org/Graphics/SVG/1.1/DTD/svg11.dtd">
<!-- Creator: CorelDRAW 2020 (64-Bit) -->
<svg xmlns="http://www.w3.org/2000/svg" xml:space="preserve" width="120px" height="120px" version="1.1" style="shape-rendering:geometricPrecision; text-rendering:geometricPrecision; image-rendering:optimizeQuality; fill-rule:evenodd; clip-rule:evenodd"
viewBox="0 0 120 120"
 xmlns:xlink="http://www.w3.org/1999/xlink"
 xmlns:xodm="http://www.corel.com/coreldraw/odm/2003">
 <defs>
  <style type="text/css">
   <![CDATA[
    .fil0 {fill:#FEFEFE}
    .fil1 {fill:#22201E;fill-rule:nonzero}
   ]]>
  </style>
 </defs>
 <g id="Слой_x0020_1">
  <metadata id="CorelCorpID_0Corel-Layer"/>
  <g id="_2040586633328">
   <g>
    <rect class="fil0" x="1.368" y="0.458" width="120" height="120" rx="11.363" ry="11.363"/>
   </g>
   <path class="fil1" d="M47.992 47.32c-3.032,0 -5.49,-2.458 -5.49,-5.49 0,-3.031 2.458,-5.489 5.49,-5.489 3.031,0 5.489,2.458 5.489,5.489 0,3.032 -2.458,5.49 -5.489,5.49zm3.293 34.057c-2.019,-2.186 -1.931,-5.582 0.201,-7.658 2.132,-2.077 5.529,-2.077 7.661,0 2.131,2.076 2.22,5.472 0.2,7.658 2.872,0.192 5.105,2.573 5.113,5.45l0 3.66c0,1.011 -0.82,1.83 -1.83,1.83l-14.638 0c-1.011,0 -1.83,-0.819 -1.83,-1.83l0 -3.66c0.008,-2.881 2.248,-5.264 5.123,-5.45zm9.515 -39.547c0,6.574 -10.275,18.214 -11.447,19.52 -0.347,0.387 -0.842,0.608 -1.361,0.608 -0.52,0 -1.014,-0.221 -1.362,-0.608 -1.172,-1.306 -11.447,-12.946 -11.447,-19.52 0,-7.074 5.734,-12.809 12.809,-12.809 7.074,0 12.808,5.735 12.808,12.809zm32.936 23.788l0 5.489 -3.659 0 0 -3.66 -5.489 0 0 -3.659 7.319 0c1.01,0 1.829,0.819 1.829,1.83zm-48.268 30.52c0,0.758 0.615,1.373 1.372,1.373l13.724 0c0.757,0 1.372,-0.615 1.372,-1.373 0,-0.757 -0.615,-1.372 -1.372,-1.372l-13.724 0c-0.757,0 -1.372,0.615 -1.372,1.372zm32.936 -55.233l0 -9.093 0 -9.094c-0.003,-2.652 -2.151,-4.801 -4.803,-4.803l-39.798 0c-2.652,0.002 -4.8,2.151 -4.803,4.803l0 75.479c0.003,2.652 2.151,4.8 4.803,4.803l39.798 0c2.652,-0.003 4.8,-2.151 4.803,-4.803l0 -14.279 0 -4.41 4.354 0 0 -3.659 -4.354 0 0 -8.402 2.888 0 0 -3.659 -2.888 0 0 -22.883zm-2.744 37.667l0 5.346 0 14.279c-0.001,1.137 -0.922,2.057 -2.059,2.058l-39.798 0c-1.137,-0.001 -2.058,-0.921 -2.058,-2.058l0 -75.479c0,-1.137 0.921,-2.058 2.058,-2.059l10.593 0 1.113 4.45c0.153,0.611 0.701,1.04 1.331,1.04l13.724 0c0.63,0 1.178,-0.429 1.331,-1.04l1.114 -4.45 10.592 0c1.137,0.001 2.058,0.922 2.059,2.059l0 9.094 0 9.093 0 37.667zm-15.482 -57.913l-0.686 2.745 -11.579 0 -0.687 -2.745 12.952 0zm-12.186 12.022c-5.051,0.006 -9.143,4.098 -9.149,9.149 0,3.487 5.152,10.766 9.149,15.508 3.996,-4.74 9.148,-12.016 9.148,-15.508 -0.006,-5.051 -4.098,-9.143 -9.148,-9.149zm7.319 43.168c-1.011,0 -1.83,0.819 -1.83,1.83 0,1.01 0.819,1.829 1.83,1.829 1.01,0 1.829,-0.819 1.829,-1.829 0,-1.011 -0.819,-1.83 -1.829,-1.83zm-5.49 12.809l10.979 0 0 -1.831c0,-1.01 -0.819,-1.829 -1.83,-1.829l-7.319 0c-1.01,0 -1.83,0.819 -1.83,1.829l0 1.831zm18.298 -12.809l5.49 0 0 3.659 -3.66 0 0 5.49 -3.659 0 0 -7.319c0,-1.011 0.819,-1.83 1.829,-1.83zm21.958 -3.66l3.659 0 0 5.49c0,1.01 -0.819,1.829 -1.829,1.829l-5.49 0 0 -3.659 3.66 0 0 -3.66zm-18.298 -4.742l-5.489 0 0 -3.659 5.489 0 0 3.659zm-9.149 0l-5.49 0 0 -3.659 5.49 0 0 3.659zm-9.149 0l-5.489 0 0 -3.659 5.489 0 0 3.659zm-5.489 -27.447c-1.011,0 -1.83,0.82 -1.83,1.83 0,1.011 0.819,1.83 1.83,1.83 1.01,0 1.829,-0.819 1.829,-1.83 0,-1.01 -0.819,-1.83 -1.829,-1.83z"/>
  </g>
 </g>
</svg>
