<?xml version="1.0" encoding="UTF-8"?>
<!DOCTYPE svg PUBLIC "-//W3C//DTD SVG 1.1//EN" "http://www.w3.org/Graphics/SVG/1.1/DTD/svg11.dtd">
<!-- Creator: CorelDRAW 2020 (64-Bit) -->
<svg xmlns="http://www.w3.org/2000/svg" xml:space="preserve" width="280px" height="81px" version="1.1" style="shape-rendering:geometricPrecision; text-rendering:geometricPrecision; image-rendering:optimizeQuality; fill-rule:evenodd; clip-rule:evenodd"
viewBox="0 0 280 81"
 xmlns:xlink="http://www.w3.org/1999/xlink"
 xmlns:xodm="http://www.corel.com/coreldraw/odm/2003">
 <defs>
  <style type="text/css">
   <![CDATA[
    .fil3 {fill:#FEFEFE}
    .fil0 {fill:#FECC00}
    .fil1 {fill:#E31E24}
    .fil2 {fill:#FEFEFE;fill-rule:nonzero}
   ]]>
  </style>
 </defs>
 <g id="Слой_x0020_1">
  <metadata id="CorelCorpID_0Corel-Layer"/>
  <g id="_2040551442064">
   <path class="fil0" d="M5.314 5.289l207.069 -0.181c-37.7,32.244 -30.9,18.758 -30.975,35.153l-176.094 0c-1.43,0 -2.6,-1.17 -2.6,-2.6l0 -29.771c0,-1.431 1.169,-2.599 2.6,-2.601z"/>
   <path class="fil1" d="M5.314 44.537l183.555 0c4.215,13.09 10.081,24.437 16.103,34.972l-199.658 0c-1.431,0 -2.6,-1.17 -2.6,-2.601l0 -29.77c0,-1.431 1.169,-2.601 2.6,-2.601z"/>
   <path class="fil2" d="M74.409 70c0,1.19 -0.62,2.076 -1.861,2.659 -1.621,0.76 -3.368,1.139 -5.242,1.139 -3.394,0 -6.116,-1.139 -8.167,-3.419 -1.95,-2.177 -2.925,-4.988 -2.925,-8.432 0,-3.419 1.019,-6.223 3.058,-8.414 2.038,-2.19 4.754,-3.285 8.148,-3.285 1.671,0 3.089,0.215 4.254,0.645 1.646,0.633 2.469,1.634 2.469,3.001 0,0.431 -0.038,0.735 -0.114,0.912 -0.431,0.987 -1.101,1.481 -2.013,1.481 -0.38,0 -1.076,-0.183 -2.089,-0.551 -1.013,-0.367 -1.786,-0.55 -2.318,-0.55 -2.836,0 -4.671,1.392 -5.507,4.178 -0.304,0.988 -0.456,1.874 -0.456,2.659 0,1.747 0.462,3.292 1.386,4.634 0.925,1.342 2.387,2.013 4.388,2.013 1.089,0 2.127,-0.202 3.114,-0.607 0.583,-0.254 1.089,-0.38 1.52,-0.38 0.684,0 1.247,0.215 1.69,0.645 0.443,0.431 0.665,0.988 0.665,1.672zm16.489 0.855c0,1.633 -0.874,2.449 -2.621,2.449l-7.901 0c-0.785,0 -1.424,-0.227 -1.918,-0.683 -0.494,-0.456 -0.741,-1.076 -0.741,-1.862l0 -17.434c0,-0.735 0.222,-1.349 0.665,-1.843 0.443,-0.493 1.045,-0.741 1.805,-0.741l8.09 0c1.621,0 2.431,0.792 2.431,2.375 0,1.557 -0.81,2.336 -2.431,2.336l-5.431 0 0 4.102 5.051 0c0.735,0 1.323,0.222 1.767,0.665 0.443,0.443 0.664,1.019 0.664,1.728 0,0.709 -0.228,1.285 -0.683,1.728 -0.456,0.444 -1.039,0.665 -1.748,0.665l-5.051 0 0 4.254 5.431 0c1.747,0 2.621,0.754 2.621,2.261zm19.908 -12.327c0,2.203 -0.665,4.008 -1.994,5.413 -1.33,1.406 -3.083,2.108 -5.261,2.108l-4.217 0 0 4.71c0,0.811 -0.227,1.469 -0.683,1.976 -0.456,0.506 -1.076,0.76 -1.861,0.76 -1.722,0 -2.583,-0.925 -2.583,-2.773l0 -17.473c0,-0.735 0.253,-1.336 0.759,-1.805 0.507,-0.468 1.14,-0.703 1.9,-0.703l5.887 0c2.406,0 4.35,0.697 5.831,2.09 1.481,1.392 2.222,3.292 2.222,5.697zm-5.318 -0.076c0,-2.076 -1.127,-3.114 -3.38,-3.114l-2.774 0 0 6.153 2.963 0c0.887,0 1.64,-0.285 2.26,-0.854 0.621,-0.57 0.931,-1.298 0.931,-2.185zm25.378 8.129c0,2.203 -0.76,3.9 -2.279,5.09 -1.368,1.089 -3.191,1.633 -5.47,1.633l-6.458 0c-0.759,0 -1.373,-0.246 -1.842,-0.74 -0.468,-0.494 -0.703,-1.108 -0.703,-1.842l0 -17.473c0,-1.672 0.849,-2.508 2.545,-2.508l6.154 0c1.722,0 3.184,0.545 4.387,1.634 1.203,1.089 1.805,2.482 1.805,4.178 0,1.925 -0.887,3.381 -2.659,4.369 1.418,0.253 2.526,0.892 3.323,1.918 0.798,1.025 1.197,2.272 1.197,3.741zm-9.269 -11.243l-2.355 0 0 4.216 2.279 0c1.621,0 2.431,-0.709 2.431,-2.127 0,-1.393 -0.785,-2.089 -2.355,-2.089zm3.951 11.053c0,-1.544 -1.064,-2.317 -3.191,-2.317l-3.115 0 0 4.634 3.305 0c2.001,0 3.001,-0.772 3.001,-2.317zm28.454 4.444c0,1.773 -0.886,2.66 -2.658,2.66 -0.76,0 -1.362,-0.248 -1.805,-0.741 -0.443,-0.494 -0.665,-1.133 -0.665,-1.919l0 -10.749 -0.031 0.006 -9.547 11.845c-0.323,0.424 -0.753,0.823 -1.285,1.197 -0.38,0.24 -0.836,0.361 -1.368,0.361 -0.683,0 -1.266,-0.228 -1.747,-0.684 -0.481,-0.462 -0.722,-1.032 -0.722,-1.716l0 -17.568c0,-1.981 0.811,-2.975 2.431,-2.975 0.811,0 1.463,0.228 1.957,0.683 0.493,0.456 0.74,1.089 0.74,1.9l0 10.901 9.534 -11.889c0.861,-1.064 1.723,-1.595 2.583,-1.595 0.811,0 1.444,0.265 1.9,0.797 0.456,0.532 0.683,1.216 0.683,2.052l0 17.434zm21.503 -0.835c0,1.19 -0.62,2.076 -1.861,2.659 -1.62,0.76 -3.368,1.139 -5.242,1.139 -3.393,0 -6.115,-1.139 -8.166,-3.419 -1.95,-2.177 -2.925,-4.988 -2.925,-8.432 0,-3.419 1.019,-6.223 3.058,-8.414 2.038,-2.19 4.754,-3.285 8.147,-3.285 1.672,0 3.09,0.215 4.254,0.645 1.646,0.633 2.47,1.634 2.47,3.001 0,0.431 -0.039,0.735 -0.115,0.912 -0.43,0.987 -1.101,1.481 -2.012,1.481 -0.38,0 -1.077,-0.183 -2.09,-0.551 -1.013,-0.367 -1.785,-0.55 -2.317,-0.55 -2.836,0 -4.672,1.392 -5.508,4.178 -0.303,0.988 -0.455,1.874 -0.455,2.659 0,1.747 0.462,3.292 1.386,4.634 0.924,1.342 2.387,2.013 4.387,2.013 1.089,0 2.127,-0.202 3.115,-0.607 0.582,-0.254 1.089,-0.38 1.519,-0.38 0.684,0 1.248,0.215 1.691,0.645 0.443,0.431 0.664,0.988 0.664,1.672z"/>
   <path class="fil2" d="M25.655 31.728c0,1.892 -0.886,2.842 -2.658,2.842 -0.836,0 -1.684,-0.481 -2.545,-1.443l-7.787 -8.699 0 7.407c0,1.824 -0.899,2.735 -2.697,2.735 -0.76,0 -1.355,-0.247 -1.785,-0.741 -0.431,-0.493 -0.646,-1.133 -0.646,-1.918l0 -17.625c0,-0.785 0.228,-1.424 0.683,-1.918 0.456,-0.493 1.064,-0.741 1.824,-0.741 1.747,0 2.621,0.925 2.621,2.773l0 6.192 7.255 -7.863c0.684,-0.734 1.443,-1.102 2.279,-1.102 0.633,0 1.209,0.26 1.728,0.779 0.519,0.519 0.779,1.108 0.779,1.766 0,0.608 -0.342,1.267 -1.026,1.976l-6.084 6.16 7.18 7.787c0.588,0.633 0.879,1.177 0.879,1.633zm20.209 0.373c0,0.684 -0.254,1.254 -0.76,1.71 -0.507,0.455 -1.102,0.683 -1.786,0.683 -1.291,0 -2.215,-0.759 -2.772,-2.279l-4.4 -11.56 -4.4 11.68c-0.557,1.437 -1.45,2.159 -2.666,2.159 -0.709,0 -1.335,-0.228 -1.867,-0.69 -0.532,-0.462 -0.798,-1.038 -0.798,-1.734 0,-0.323 0.152,-0.842 0.456,-1.564l6.458 -16.524c0.633,-1.57 1.57,-2.355 2.811,-2.355 1.164,0 2.051,0.76 2.658,2.279l6.61 16.448c0.304,0.734 0.456,1.317 0.456,1.747zm21.119 0.076c0,0.709 -0.234,1.266 -0.703,1.671 -0.468,0.406 -1.057,0.608 -1.766,0.608 -1.317,0 -2.203,-0.81 -2.659,-2.431l-0.646 -2.165 -8.394 0 -0.684 2.203c-0.506,1.596 -1.418,2.393 -2.735,2.393 -1.595,0 -2.393,-0.721 -2.393,-2.171 0,-0.69 0.19,-1.551 0.57,-2.59l5.394 -14.636c0.962,-2.564 2.279,-3.849 3.95,-3.849 1.747,0 3.064,1.165 3.951,3.494l5.659 15.156c0.304,0.785 0.456,1.557 0.456,2.317zm-7.331 -7.027l-2.583 -8.281 -0.076 0 -2.697 8.281 5.356 0zm33.92 6.685c0,1.722 -1,2.583 -3,2.583l-1.748 0c-0.076,0 -0.196,0 -0.361,0 -0.164,0 -0.285,0 -0.361,0 -0.101,0 -0.234,0 -0.398,0 -0.165,0 -0.298,0 -0.399,0l-12.535 0c-0.279,0.102 -0.583,0.152 -0.912,0.152 -0.126,0 -0.31,-0.025 -0.551,-0.076 -0.24,-0.05 -0.373,-0.076 -0.398,-0.076 -1.266,0 -1.938,0 -2.014,0 -0.835,-0.076 -1.456,-0.329 -1.861,-0.759 -0.481,-0.481 -0.722,-1.102 -0.722,-1.862 0,-1.671 1.001,-2.507 3.001,-2.507l0.798 0 6.04 -15.308c0.607,-1.57 1.531,-2.355 2.772,-2.355 1.165,0 2.051,0.76 2.66,2.279l6.191 15.384 0.722 0c2.051,0 3.076,0.849 3.076,2.545zm-9.369 -2.545l-3.28 -8.667 -3.26 8.667 6.54 0zm32.844 -6.153c0,3.469 -0.988,6.293 -2.963,8.47 -1.975,2.178 -4.672,3.267 -8.091,3.267 -3.418,0 -6.141,-1.114 -8.167,-3.342 -1.949,-2.128 -2.924,-4.926 -2.924,-8.395 0,-3.495 0.962,-6.318 2.887,-8.471 2.025,-2.228 4.76,-3.343 8.204,-3.343 3.444,0 6.167,1.115 8.167,3.343 1.925,2.153 2.887,4.976 2.887,8.471zm-5.508 -0.019c0,-1.982 -0.418,-3.609 -1.253,-4.875 -0.988,-1.475 -2.419,-2.209 -4.293,-2.209 -1.874,0 -3.304,0.747 -4.292,2.247 -0.861,1.241 -1.292,2.855 -1.292,4.837 0,1.956 0.431,3.57 1.292,4.837 0.988,1.424 2.418,2.133 4.292,2.133 1.849,0 3.267,-0.722 4.255,-2.172 0.86,-1.24 1.291,-2.842 1.291,-4.798zm23.588 4.539c0,2.203 -0.759,3.9 -2.279,5.09 -1.367,1.089 -3.19,1.633 -5.469,1.633l-6.458 0c-0.759,0 -1.374,-0.247 -1.842,-0.74 -0.469,-0.494 -0.703,-1.108 -0.703,-1.843l0 -17.473c0,-1.671 0.849,-2.507 2.545,-2.507l6.154 0c1.722,0 3.184,0.545 4.387,1.634 1.203,1.088 1.804,2.481 1.804,4.178 0,1.925 -0.886,3.381 -2.659,4.368 1.419,0.253 2.526,0.893 3.324,1.918 0.798,1.026 1.196,2.273 1.196,3.742zm-9.268 -11.244l-2.355 0 0 4.217 2.279 0c1.621,0 2.431,-0.709 2.431,-2.127 0,-1.393 -0.785,-2.09 -2.355,-2.09zm3.951 11.054c0,-1.545 -1.064,-2.317 -3.191,-2.317l-3.115 0 0 4.634 3.305 0c2.001,0 3.001,-0.772 3.001,-2.317zm24.766 4.261c0,1.892 -0.887,2.842 -2.659,2.842 -0.836,0 -1.684,-0.481 -2.545,-1.443l-7.787 -8.699 0 7.407c0,1.824 -0.899,2.735 -2.697,2.735 -0.76,0 -1.355,-0.247 -1.785,-0.741 -0.431,-0.493 -0.646,-1.133 -0.646,-1.918l0 -17.625c0,-0.785 0.228,-1.424 0.684,-1.918 0.456,-0.493 1.063,-0.741 1.823,-0.741 1.747,0 2.621,0.925 2.621,2.773l0 6.192 7.255 -7.863c0.684,-0.734 1.443,-1.102 2.279,-1.102 0.633,0 1.209,0.26 1.728,0.779 0.52,0.519 0.779,1.108 0.779,1.766 0,0.608 -0.342,1.267 -1.025,1.976l-6.084 6.16 7.179 7.787c0.588,0.633 0.88,1.177 0.88,1.633zm20.929 0.449c0,0.709 -0.234,1.266 -0.702,1.671 -0.469,0.406 -1.057,0.608 -1.767,0.608 -1.317,0 -2.203,-0.81 -2.659,-2.431l-0.645 -2.165 -8.395 0 -0.684 2.203c-0.506,1.596 -1.418,2.393 -2.735,2.393 -1.595,0 -2.392,-0.721 -2.392,-2.171 0,-0.69 0.189,-1.551 0.569,-2.59l5.394 -14.636c0.962,-2.564 2.279,-3.849 3.95,-3.849 1.748,0 3.064,1.165 3.951,3.494l5.66 15.156c0.303,0.785 0.455,1.557 0.455,2.317zm-7.331 -7.027l-2.583 -8.281 -0.076 0 -2.696 8.281 5.355 0z"/>
   <path class="fil3" d="M2.714 48.232c1.03,-0.891 2.183,-2.414 2.684,-3.695l1.118 0c-1.07,1.927 -2.756,3.169 -3.802,4.552l0 -0.857zm0 3.853c0.335,-0.344 0.632,-0.857 1.275,-1.563 1.742,-1.919 3.942,-3.893 5.412,-5.985l1.721 0c-1.852,1.237 -4.184,4.001 -5.28,5.265 -0.848,0.978 -2.236,2.413 -3.128,3.856l0 -1.573zm0 4.949l0.549 -0.555c0.248,-0.298 0.462,-0.588 0.719,-0.899l4.409 -5.038c1.532,-1.62 4.986,-4.656 5.81,-6.005l1.056 0c-1.067,0.661 -2.047,1.74 -2.908,2.723 -0.852,0.973 -1.9,1.861 -2.572,2.713 -2.122,2.69 -5.815,5.969 -7.063,8.047l0 -0.986zm0 8.595l0.055 0.073c0.743,-0.471 0.548,-0.431 1.411,-1.445l18.893 -19.72 1.319 0c-0.703,0.524 -1.702,1.738 -4.393,4.456l-16.191 16.804c-0.942,0.993 -1.043,1.205 -1.094,2.18l0 -2.348zm41.283 -21.092c-1.897,0.68 -3.858,3.036 -5.414,4.331l-14.834 14.079c-1.346,1.39 -6.066,6.994 -7.136,7.672 0.165,-1.503 1.839,-2.318 2.863,-3.72 1.412,-1.933 1.848,-2.073 3.214,-3.512 1.131,-1.192 2.007,-2.363 3.173,-3.535l9.987 -9.257c1.459,-1.18 5.816,-4.572 6.853,-5.911 -0.126,-0.057 -0.247,-0.105 -0.366,-0.147l1.66 0zm-7.372 0c-0.693,0.445 -1.572,1.536 -4.273,4.117l-12.752 12.966c-1.48,1.558 -2.749,2.991 -4.245,4.497 -2.627,2.648 -5.913,6.072 -8.403,8.994l-3.171 3.212c0.112,-2.721 5.578,-6.961 7.34,-9.212l7.94 -8.52c2.504,-2.731 5.49,-5.596 8.07,-8.201l8.221 -7.853 1.273 0zm-6.191 0c-0.058,0.037 -0.113,0.076 -0.164,0.119 -1.077,0.895 -2.634,2.685 -3.635,3.673l-14.56 14.857c-1.724,1.806 -5.39,6.093 -7.133,7.391 1.198,-3.105 3.405,-4.419 5.853,-6.998 0.923,-0.973 1.973,-2.42 2.961,-3.599l15.617 -15.443 1.061 0zm-11.317 0c-1.722,2.914 -5.279,5.996 -7.448,7.877 -0.871,0.756 -1.295,0.848 -1.984,1.863 -1.62,2.387 -3.098,5.038 -5.819,6.446 5.311,-7.918 10.209,-10.42 14.349,-16.186l0.902 0z"/>
   <path class="fil3" d="M62.634 44.537c-1.898,0.68 -3.858,3.036 -5.414,4.331l-14.834 14.079c-1.347,1.39 -6.067,6.994 -7.137,7.672 0.166,-1.503 1.84,-2.318 2.863,-3.72 1.412,-1.933 1.849,-2.073 3.214,-3.512 1.131,-1.192 2.008,-2.363 3.174,-3.535l9.986 -9.257c1.459,-1.18 5.817,-4.572 6.854,-5.911 -0.126,-0.057 -0.248,-0.105 -0.367,-0.147l1.661 0zm-7.372 0c-0.694,0.445 -1.573,1.536 -4.274,4.117l-12.752 12.966c-1.479,1.558 -2.749,2.991 -4.244,4.497 -2.628,2.648 -5.913,6.072 -8.403,8.994l-3.172 3.212c0.113,-2.721 5.578,-6.961 7.341,-9.212l7.939 -8.52c2.504,-2.731 5.491,-5.596 8.071,-8.201l8.221 -7.853 1.273 0zm-6.192 0c-0.058,0.037 -0.113,0.076 -0.164,0.119 -1.076,0.895 -2.634,2.685 -3.635,3.673l-14.56 14.857c-1.723,1.806 -5.389,6.093 -7.132,7.391 1.197,-3.105 3.405,-4.419 5.852,-6.998 0.924,-0.973 1.973,-2.42 2.961,-3.599l15.618 -15.443 1.06 0z"/>
   <polygon class="fil3" points="185.682,53.57 195.99,53.642 208.195,77.112 254.266,78.241 279.051,44.886 270.153,25.926 280.877,12.501 255.737,0.352 213.768,7.238 184.936,32.271 182.948,51.117 183.369,53.232 "/>
   <path class="fil1" d="M245.231 77.216c0.819,-1.077 1.437,-1.563 2.202,-2.728 0.596,-0.91 1.12,-2.007 1.817,-2.769 0.271,0.543 0.541,1.086 0.812,1.63 -0.872,0.796 -2.23,4.302 -4.526,3.967 -0.258,-0.037 -0.168,-0.033 -0.305,-0.1zm-2.405 0.206c-0.259,-0.795 -0.17,-0.771 0.359,-1.291 0.503,-0.492 0.346,-0.516 0.703,-0.967 0.548,-0.642 1.098,-1.284 1.646,-1.926 0.189,-0.28 0.371,-0.825 0.512,-1.135 0.756,-1.66 1.078,-1.816 1.846,-3.198 0.296,0.618 0.593,1.236 0.889,1.854 -0.787,1.267 -1.574,2.535 -2.36,3.803 -1.581,1.972 -1.822,2.71 -3.595,2.86zm-2.75 -0.453c0.373,-0.821 1.246,-1.739 1.792,-2.537 1.657,-2.555 3.316,-5.11 4.973,-7.665 0.239,0.527 0.478,1.054 0.717,1.581 -0.297,0.48 -0.656,0.812 -0.901,1.223 -0.988,1.655 -0.867,1.881 -2.283,3.688 -0.805,1.027 -2.371,4.324 -4.298,3.71zm-3.633 0.203c-0.218,-0.639 -0.188,-0.467 0.3,-0.971 0.715,-0.737 1.077,-1.618 1.632,-2.613 0.794,-1.142 1.587,-2.284 2.381,-3.426 0.88,-1.32 1.525,-2.203 2.233,-3.487 0.566,-1.029 1.268,-2.469 2.046,-3.393 2.269,3.641 1.207,2.878 0.619,3.82 -0.145,0.233 -0.268,0.598 -0.403,0.848 -0.435,0.799 -0.4,0.357 -1.098,1.589 -0.356,0.627 -0.698,0.939 -1.046,1.6 -0.344,0.654 -0.585,0.92 -1.009,1.506 -0.705,0.975 -2.456,3.96 -3.732,4.356 -0.181,0.055 -1.761,0.185 -1.923,0.171zm-19.934 -0.315c0.107,-0.93 0.488,-1.403 1.23,-2.125 0.961,-1.264 1.923,-2.527 2.885,-3.791 0.448,-0.805 0.822,-1.191 1.354,-1.935 1.001,-1.396 1.715,-2.571 2.501,-3.936 0.271,-0.469 0.748,-1.716 1.242,-1.84 0.721,-0.18 1.488,0.034 2.615,-0.39 0.164,0.953 -0.263,1.587 -0.857,2.341 -1.443,1.832 -0.582,0.823 -1.212,1.98 -0.373,0.686 -0.944,1.24 -1.412,1.913 -0.797,1.145 0.198,0.266 -1.407,1.915 -1.171,1.203 -1.905,2.52 -2.89,3.793 -0.304,0.394 -1.247,1.542 -1.638,1.826 -0.289,0.211 -2.265,0.301 -2.411,0.249zm-3.593 0.234c-0.087,-0.898 1.993,-3.087 2.671,-3.918 2.877,-3.527 2.528,-4.234 4.958,-7.675 0.909,-1.287 2.056,-3.011 3.728,-2.03 -0.989,2.533 -5.699,8.454 -7.741,11.163 -1.151,1.527 -1.349,2.547 -3.616,2.46zm58.386 -45.578c0.001,0.067 3.108,5.799 3.481,6.592 1.095,2.323 2.2,4.592 3.323,6.897 -0.859,2.132 -10.167,14.121 -11.771,16.335 -2.127,2.935 -6.725,9.548 -8.895,12.203 -0.911,1.114 -2.454,3.97 -3.457,3.536 -1.303,-0.922 -8.212,-15.705 -9.356,-18.261 -0.536,-1.033 -2.278,-4.253 -2.544,-5.135 -0.275,-0.912 0.212,-1.382 0.46,-1.961 0.3,-0.697 0.029,-1.215 0.828,-1.737 1.682,1.292 0.362,1.918 0.412,3.08 0.02,0.849 0.04,1.697 0.06,2.546 0.166,0.53 0.499,0.476 0.5,0.476 0.425,-1.642 -0.009,-3.498 0.63,-4.244 0.794,0.396 2.322,3.325 3.607,4.209 2.027,1.394 2.487,-1.028 5.357,-4.01 0.736,-0.764 0.86,-1.329 1.423,-1.913 1.148,-1.189 2.228,-2.44 3.164,-3.697 2.534,-3.401 6.639,-7.85 9.338,-11.257 0.957,-1.208 1.9,-3.096 3.44,-3.659zm-43.584 44.979c1.306,-0.265 2.8,-3.95 3.672,-4.919 1.027,-1.141 1.209,-1.341 1.843,-2.518 0.674,-1.249 0.81,-1.38 1.793,-2.548 0.514,-0.612 1.097,-1.729 1.729,-2.567 2.353,-3.124 1.455,-1.701 3.285,-5.197 0.425,-0.811 0.965,-1.906 1.562,-2.615 1.021,2.096 2.041,4.192 3.062,6.288 -1.126,1.207 -1.946,2.925 -2.763,4.305 -0.9,1.519 -1.943,2.779 -2.916,4.229 -0.992,1.478 -1.747,2.84 -2.707,4.306 -0.499,0.761 -0.87,1.621 -1.88,1.66 -1.009,0.038 -1.853,0.13 -2.679,0.035 0.05,-0.278 -0.009,-0.08 0.096,-0.345 0.035,-0.086 0.109,-0.22 0.153,-0.293 0.359,-0.529 0.718,-1.058 1.077,-1.587 1.948,-3.02 9.603,-13.36 9.666,-14.782 -0.435,0.73 -1.719,2.248 -2.347,3.126 -0.759,1.062 -1.419,2.074 -2.185,3.168 -0.704,1.005 -1.621,2.09 -2.305,3.128 -1.34,2.034 -2.844,4.452 -4.277,6.383 -0.489,0.658 -0.626,1.177 -1.438,1.148 -3.356,-0.122 -7.64,0.625 -9.902,-0.498 1.492,-1.414 4.841,-5.674 5.904,-7.402 0.8,-1.303 1.644,-2.63 2.441,-3.853 0.297,-0.457 0.95,-1.739 1.2,-2.006 0.316,-0.336 1.798,-0.614 2.354,-0.495 0.191,0.962 -4.506,6.906 -5.311,8.377 -1.261,2.306 -3.284,4.094 -3.101,4.949 1.282,0.102 3.514,-3.736 4.116,-4.802 0.425,-0.752 0.732,-0.931 1.233,-1.643 0.751,-1.161 1.503,-2.321 2.255,-3.482 0.43,-0.601 0.797,-1.121 1.183,-1.771 0.339,-0.572 0.481,-1.366 0.94,-1.702 0.746,-0.095 1.317,0.454 1.792,-0.284 0.163,-0.584 -0.617,-1.854 0.185,-3.015 0.58,-0.838 1.056,-1.599 1.353,-2.486 0.632,-1.891 0.285,-0.785 1.441,-2.454 0.546,-0.788 0.875,-1.65 0.761,-2.709 -1.115,1.529 -3.406,6.178 -4.292,7.209 -0.242,-0.695 -0.45,-1.968 -0.561,-2.683 -0.194,-1.245 0.73,-1.215 1.465,-3.001 0.145,-0.353 1.483,-1.811 1.378,-2.873 -0.882,0.07 -1.756,3.027 -3.217,4.015 -0.406,-1.392 0.247,-1.451 -0.522,-3.119 0.615,-0.688 1.167,-1.877 1.579,-2.725 0.314,-0.646 1.057,-2.137 1.67,-2.709 1.579,3.275 3.157,6.551 4.736,9.826 -0.757,0.952 -1.22,1.838 -1.662,2.682 -1.222,2.337 -3.069,4.48 -4.502,6.525 -0.349,0.497 -0.426,0.836 -0.724,1.278 -0.622,0.921 -1.396,1.58 -1.999,2.582 -1.345,2.232 -2.851,3.655 -3.419,5.252 -0.376,1.06 -1.87,1.563 -1.215,2.612zm-7.046 -13.03c-1.564,2.556 -6.66,10.184 -8.215,11.99 -1.457,1.692 -0.837,1.56 -3.147,1.335 -0.682,-0.066 -1.193,-0.078 -1.595,-0.792 -1.836,-3.759 -3.672,-7.519 -5.507,-11.278 0.183,-0.083 0.366,-0.167 0.549,-0.25 0.117,0.114 0.233,0.227 0.35,0.341 -0.006,-0.019 0.036,0.045 0.06,0.059 1.411,-0.834 2.209,-0.169 3.945,-0.754 0.508,1.604 -2.279,1.576 -1.537,3.43 1.975,-0.767 1.803,-2.23 3.098,-3.118 0.658,-0.452 1.352,-0.1 2.251,-0.363 0.91,-0.267 1.305,-0.681 2.041,-0.126 -0.029,0.073 -1.916,2.9 -2.084,3.102 -0.857,1.036 -1.968,1.821 -1.686,3.098 1.621,-1.016 2.584,-2.556 3.437,-3.9 0.843,-1.329 1.451,-2.543 2.56,-2.632 0.53,-0.043 0.891,-0.164 1.281,0.022 -0.124,0.566 -1.678,2.491 -2.023,2.955 -2.383,3.202 -2.103,4.048 -2.513,4.59 -0.46,0.61 -0.651,0.534 -1.117,1.358 -0.907,1.605 -1.845,2.016 -1.082,3.055 1.303,-0.996 5.115,-8.231 7.16,-10.872 0.436,-0.562 0.852,-1.3 1.622,-1.395 0.85,-0.103 1.578,-0.138 2.152,0.145zm12.334 -14.168c-0.525,-2.502 0.14,-5.843 1.6,-7.402 0.508,1.044 1.016,2.089 1.524,3.133 -0.453,0.801 -0.905,1.602 -1.358,2.404 -0.319,0.652 -0.771,1.664 -1.766,1.865zm-0.853 -7.698c-0.542,-1.434 -1.24,-4.601 -0.894,-5.731 0.721,0.43 1.334,1.826 1.663,2.54 0.435,0.945 0.967,1.906 1.312,2.867 -1.801,1.595 -0.471,1.737 -1.698,2.49 -0.544,-1.772 1.122,-1.677 0.393,-3.191 -1.029,0.598 -0.044,0.429 -0.776,1.025zm-5.675 -9.814c-0.845,-0.354 -2.185,-1.915 -2.437,-3.017 0.786,-0.184 1.003,0.286 2.322,-0.2 0.626,1.544 0.285,2.143 0.115,3.217zm-3.172 -2.816c1.14,2.254 3.717,2.88 3.135,5.24 -0.588,-0.105 -0.666,-0.514 -1.357,-1.223 -1.189,-1.221 -2.706,-2.456 -3.66,-3.82 1.048,-0.558 0.967,-0.157 1.882,-0.197zm-3.859 0.136c1.188,-0.076 3.496,2.496 4.43,3.503 1.073,1.157 3.471,3.34 2.259,4.766 -0.193,-0.18 -0.386,-0.361 -0.579,-0.542 -0.162,-0.183 -0.301,-0.361 -0.469,-0.551 -0.957,-1.023 -1.914,-2.045 -2.871,-3.067 -1.106,-1.086 -3.744,-3.187 -3.896,-3.863 0.305,-0.227 0.742,-0.221 1.126,-0.246zm6.752 12.624c-0.134,0.697 0.07,0.538 -0.32,1.086 -0.485,-0.271 -0.357,-0.254 -0.92,-0.873 -4.145,-4.016 -8.289,-8.033 -12.434,-12.049 1.058,-0.36 1.567,-0.142 2.47,-0.483 0.999,1.945 3.565,3.978 5.086,5.183 0.567,0.449 0.843,0.489 1.292,1.117 1.056,1.476 2.018,3.13 3.79,3.915 -3.525,-4.993 -6.772,-6.342 -9.501,-10.052 1.514,-0.833 2.89,0.536 3.977,1.696 0.554,0.592 1.236,1.119 1.674,1.641 1.604,1.913 4.584,4.24 4.859,5.465 0.24,1.068 0.221,2.35 0.027,3.354zm-11.689 -29.096c0.161,1.21 -0.306,2.989 -0.531,3.97 -0.547,2.389 -0.286,3.139 -0.46,3.918 -0.35,2.228 -0.699,4.457 -1.049,6.686 -0.088,0.635 -0.11,0.358 0.283,0.962 0.817,-0.571 0.583,-1.922 0.943,-4.047 0.394,-2.327 0.344,-1.584 0.474,-4.024 0.037,-0.703 0.224,-1.139 0.281,-1.993 0.096,-1.464 0.321,-1.39 0.413,-1.945 0.099,-1.029 0.198,-2.059 0.297,-3.089 0.019,-0.42 0.06,-0.593 0.361,-0.939 0.143,0.187 0.286,0.374 0.429,0.561 1.486,2.551 1.094,2.401 0.845,3.731 -0.124,0.661 -0.261,1.187 -0.392,1.844 -0.193,1.253 -0.387,2.507 -0.58,3.76 -0.113,0.561 -0.331,1.277 -0.357,1.862 -0.103,2.281 -0.868,2.946 -0.178,3.675 0.507,-0.626 1.032,-5.204 1.128,-5.871 0.37,-1.896 0.74,-3.793 1.11,-5.69 2.301,3.546 0.78,3.24 0.949,5.895 0.137,2.171 -0.509,1.078 -0.514,2.57 -0.004,0.982 -0.016,0.481 -0.297,1.331 -0.136,0.408 -0.212,0.825 0.284,1.213 0.529,-0.678 1.152,-3.98 1.315,-5.154 0.089,-0.649 0.11,-1.162 0.314,-1.745 1.751,3.206 -0.294,5.502 0.15,7.468 -1.393,0.409 -4.744,0.493 -6.807,0.766 -0.652,0.086 -1.634,0.412 -2.24,0.388 -0.223,-0.636 0.059,-1.351 0.277,-1.865 0.346,-0.814 0.345,-0.817 0.413,-1.834 0.425,-3.716 0.851,-7.432 1.277,-11.148 0.621,-0.418 1.242,-0.837 1.862,-1.256zm27.622 -10.236c-2.022,0.423 -20.032,3.248 -20.719,3.618 0.216,0.045 -0.06,0.039 0.39,0.036 0.005,0 0.244,-0.016 0.249,-0.016 7.951,-1.096 15.903,-2.192 23.854,-3.287 0.827,-0.172 6.069,-1.549 6.765,-1.262 0.317,0.131 0.477,0.521 0.45,0.44 0.168,0.038 0.334,0.076 0.501,0.114 0.724,0.06 0.426,0.286 0.897,-0.14 0.442,-0.399 0.083,-0.494 0.963,-1.041 0.212,0.163 0.423,0.325 0.635,0.488 0.67,0.611 1.504,1.073 2.13,1.925 0.343,-0.146 0.686,-0.292 1.029,-0.438 0.754,0.569 0.042,0.462 1.284,0.812 1.066,0.301 1.313,0.59 2.048,0.893 2.956,1.222 4.59,2.162 7.427,3.466 0.912,0.381 1.822,0.763 2.734,1.145 0.938,0.463 1.575,0.871 2.63,1.48 1.089,0.627 2.627,0.465 5.248,2.587 -1.806,2.186 -3.611,4.372 -5.417,6.558 -0.417,0.586 -0.832,1.118 -1.41,1.69 -0.445,0.442 -0.838,1.05 -1.343,1.61 -0.236,0.262 -0.486,0.499 -0.69,0.85 -0.138,0.239 -0.241,0.607 -0.455,0.824 -0.552,0.561 -1.498,0.853 -2.083,1.298 -0.051,0.287 -0.103,0.575 -0.155,0.862 -0.274,0.905 -1.167,1.393 -1.6,2.063 -1.543,2.385 -1.324,1.433 -2.296,2.689 -0.721,0.931 -1.193,1.785 -2.035,2.774 -0.751,0.882 -1.603,1.693 -2.297,2.584 -1.123,1.44 -7.38,9.825 -8.4,10.849 -1.379,-0.534 -1.729,-1.677 -2.877,-2.426 -3.828,-2.497 -5.131,-3.729 -8.639,-6.858 -1.1,-0.982 -1.871,-1.468 -2.9,-2.325 -0.964,-0.804 -1.963,-1.808 -2.879,-2.368 -0.855,-0.522 -0.751,-0.541 -1.481,-1.265 -1.321,-1.309 -3.014,-1.853 -4.022,-4.128 0.083,-0.178 0.011,-0.068 0.185,-0.311 5.218,-5.23 10.435,-10.46 15.652,-15.69 1.774,-1.705 2.89,-2.81 4.408,-4.672 0.173,-0.251 0.347,-0.502 0.52,-0.753 -2.816,1.91 -8.564,7.453 -11.023,10.044 -2.274,2.395 -7.853,8.432 -9.918,10.267 -0.447,-0.982 0.416,-0.859 1.035,-1.723 0.473,-0.661 0.968,-0.941 1.457,-1.57 0.46,-0.592 1.047,-0.935 1.499,-1.545 0.421,-0.567 0.671,-1.086 0.964,-1.632 0.631,-1.176 2.199,-1.982 3.275,-2.996 0.702,-0.662 1.353,-2.235 2.517,-3.171 2.092,-1.987 4.183,-3.975 6.274,-5.962 0.836,-1.115 3.594,-3.611 4.602,-5.492 0.285,-0.532 0.315,-1.026 -0.475,-0.848 -1.458,0.331 0.167,0.846 -3.869,1.729 -8.317,1.82 -17.463,2.603 -25.799,4.632 -0.705,0.172 -3.78,1.115 -4.462,0.985 -0.314,-1.264 0.466,-1.269 0.257,-2.5 -0.043,-0.255 -0.082,-0.405 -0.103,-0.507 -1.066,0.126 -2.133,0.252 -3.199,0.378 -0.689,0.596 -1.384,1.189 -2.082,1.779 -0.944,0.897 -1.888,1.793 -2.832,2.689 -1.027,0.89 -2.123,1.813 -3.179,2.692 -2.136,1.776 -4.301,3.578 -6.479,5.355 -4.283,3.602 -8.566,7.204 -12.849,10.806 -1.845,1.493 -2.051,2.266 -2.182,4.572 -0.053,3.638 -1.196,12.442 -0.764,14.8 0.347,-0.988 0.594,-2.471 0.765,-3.564 0.487,-3.565 0.974,-7.13 1.462,-10.695 -0.297,-2.398 1.109,-4.545 1.993,-5.143 3.124,-2.115 7.709,-6.321 10.744,-8.768 1.364,-1.099 2.674,-2.036 3.955,-3.185 1.195,-1.071 2.381,-2.239 3.782,-3.264 0.774,-0.565 1.49,-0.869 2.129,-1.521 1.516,-1.545 4.116,-4.266 6.235,-4.64 0.871,2.333 -1.66,2.667 -3.037,4.497 -0.002,0.002 -4.371,3.346 -4.772,3.923 1.199,-0.413 1.827,-0.822 2.89,-1.457 0.119,1.192 -0.158,2.296 -0.267,3.37 -0.148,1.012 -0.295,2.025 -0.443,3.037 -0.13,2.495 -1.116,4.555 -0.544,6.189 0.603,-0.869 0.852,-2.404 1.023,-3.582 0.098,-0.677 0.14,-1.176 0.265,-1.889 0.202,-1.149 0.421,-1.054 0.398,-1.729 -0.08,-2.45 0.202,-1.351 0.198,-3.792 -0.001,-0.922 0.276,-2.939 1.823,-2.958 0.478,0.71 0.174,1.301 -0.025,1.849 -0.333,0.915 -0.047,0.94 -0.145,1.711 -0.048,0.373 -0.166,0.508 -0.293,0.886 -0.307,0.918 -0.124,1.872 -0.229,2.564 -0.17,1.126 -0.404,2.288 -0.461,3.476 -0.048,1.001 -0.171,0.966 -0.375,1.739 -0.206,0.778 -0.011,0.992 -0.026,1.784 -1.307,0.515 -2.083,0.137 -3.468,0.649 -0.512,-2.198 0.525,-8.036 0.441,-9.014 -0.89,0.279 -0.266,0.388 -0.687,2.116 -0.156,0.752 -0.314,1.505 -0.47,2.257 -0.169,1.552 0.132,3.36 -0.342,4.724 -0.866,0.133 -2.137,0.163 -2.887,0.079 -0.474,-1.428 0.378,-2.928 0.265,-5.555 -0.014,-0.323 -0.036,-0.598 -0.019,-0.893 0.024,-0.308 0.048,-0.617 0.072,-0.925 -0.553,0.354 -0.455,0.518 -0.538,1.088 -0.071,0.489 -0.14,0.491 -0.088,1.067 0.085,0.953 -0.158,1.439 -0.285,2.216 -0.206,1.252 0.055,3.617 -1.924,3.42 -0.579,-0.788 -0.04,-0.975 -0.054,-3.144 -0.007,-1.219 0.647,-1.568 0.402,-2.93 -0.686,0.682 -0.911,1.851 -0.929,2.948 -0.02,1.199 -0.082,2.194 -0.257,3.191 -0.565,0.067 -0.864,0.071 -1.475,0.431 -0.198,-1.87 0.505,-4.248 0.298,-5.323 -0.563,0.487 -0.335,0.673 -0.384,1.476 -0.045,0.726 -0.252,0.624 -0.353,1.3 -0.133,0.903 -0.053,2.246 -0.655,2.674 -0.08,-0.033 -0.552,-0.068 -0.719,-0.851 -0.091,-0.425 -0.006,-0.707 0.06,-1.083 0.113,-0.652 0.363,-1.278 0.11,-2.146 -0.77,0.678 -0.707,1.454 -0.666,2.487 0.059,1.504 -0.056,1.583 -1.544,1.96 -0.533,-0.552 -0.325,-0.236 -0.275,-0.819 -0.204,0.31 -0.408,0.62 -0.611,0.93 -0.011,0.013 -0.037,0.088 -0.058,0.069 -0.021,-0.019 -0.044,0.041 -0.056,0.068 0.358,0.115 0.521,0.153 1.013,0.074 1.023,-0.163 0.53,-0.025 1.094,0.101 1.02,0.23 1.287,-0.843 2.037,0.261 1.686,-1.868 3.824,0.833 5.359,1.996 3.221,2.817 6.442,5.633 9.663,8.45 0.877,0.84 3.951,4.26 4.648,4.65 -0.108,-0.971 -1.199,-1.421 -1.865,-2.284 -0.92,-1.191 -1.204,-1.26 -2.093,-2.131 -0.737,-0.722 -1.308,-1.442 -2.068,-2.148 -2.168,-1.848 -4.336,-3.697 -6.504,-5.545 -0.951,-0.697 -3.789,-2.695 -4.464,-3.516 0.75,-0.395 1.295,-0.338 2.09,-0.409 2.302,-0.203 1.225,-0.527 4.652,2.491 2.769,2.609 5.537,5.217 8.306,7.826 0.964,0.943 1.791,1.814 2.765,2.723 1.711,1.597 3.851,3.667 5.474,5.449 0.688,0.646 1.377,1.292 2.065,1.938 -0.073,-1.767 -3.633,-4.263 -4.781,-5.644 -1.724,-1.721 -3.448,-3.442 -5.172,-5.163 -1.631,-1.657 -3.577,-3.378 -5.257,-4.95 -1.785,-1.571 -3.57,-3.144 -5.356,-4.716 0.956,-0.297 2.604,-0.704 3.312,-0.168 0.702,0.531 1.716,1.62 2.368,2.215 3.161,2.99 6.322,5.98 9.484,8.97 1.122,1.093 3.51,3.706 4.645,4.467 -0.779,-1.964 -2.217,-2.713 -3.812,-4.274 -0.601,-0.588 -1.285,-1.48 -1.928,-2.2 -3.428,-3.133 -6.855,-6.266 -10.282,-9.399 0.754,-0.199 1.193,-0.164 1.915,-0.251 1.619,-0.194 0.966,-0.323 4.3,2.797 3.515,3.386 7.031,6.772 10.546,10.159 0.707,0.691 0.687,0.763 0.727,1.691 0.025,0.562 0.057,1.118 0.04,1.674 -0.028,0.95 -0.166,2.54 -0.568,3.173 0.425,0.957 0.727,1.057 1.17,1.789 -3.347,1.164 -6.985,0.576 -10.288,0.846 -1.28,0.105 -2.176,0.322 -3.445,0.292 -3.06,-0.072 -6.919,0.299 -10.187,0.407 -1.805,0.06 -2.172,-0.558 -2.98,-0.998 -0.086,0.669 0.584,0.459 0.307,0.861 -0.532,0.771 -3.137,0.516 -3.549,0.359 -2.09,0.98 -6.66,0.114 -8.927,0.564 0.589,0.832 7.754,-0.001 8.074,0.407 1.394,2.82 2.787,5.639 4.18,8.458 0.754,1.375 0.046,1.165 0.377,2.17 0.579,0.484 0.748,0.11 1.144,0.884 1.486,3.086 2.972,6.172 4.457,9.257 1.394,2.962 0.886,0.766 1.008,3.173 0.59,0.548 0.64,0.726 1.354,0.775 0.72,0.073 1.44,0.146 2.16,0.219 0.261,0.061 0.339,0.097 0.643,0.077 0.695,-0.046 0.721,-0.15 1.488,-0.1 1.892,0.124 3.903,-0.002 5.782,0.076 3.783,0.158 7.511,0.345 11.445,0.498 2.015,0.078 3.584,0.316 5.718,0.257 0.997,-0.027 1.946,-0.066 2.916,-0.029 1.898,0.073 1.703,0.258 2.78,0.372 0.424,0.045 4.12,-0.522 5.991,-0.545 0.963,-0.012 1.917,0.006 2.881,0.059 1.186,0.065 1.744,-0.103 2.724,0.53 2.072,1.337 2.984,-1.157 3.977,-2.925 2.189,-3.025 4.377,-6.05 6.566,-9.076 3.011,-4.211 6.872,-9.462 9.694,-13.663 0.461,-0.686 4.42,-6.583 4.894,-6.782 1.081,-0.456 2.01,0.222 2.666,-1.268 0.016,-0.377 -4.433,-9.142 -4.984,-10.263 -0.629,-1.281 -4.795,-9.142 -4.563,-9.911 0.171,-0.567 0.75,-1.094 1.289,-1.628 0.732,-0.727 0.632,-1.046 1.246,-1.636 0.971,-1.043 1.942,-2.086 2.913,-3.129 0.824,-1.275 1.439,-1.982 2.594,-3.242 1.398,-1.526 2.085,-2.884 2.406,-3.216 0.61,0.215 0.604,0.481 1.393,0.001 -1.368,-1.185 -4.43,-2.417 -6.022,-3.27 -1.002,-0.536 -2.071,-1.014 -3.06,-1.52 -0.999,-0.511 -1.88,-1.118 -2.912,-1.633 -0.552,-0.276 -0.968,-0.464 -1.559,-0.679 -1.497,-0.749 -2.994,-1.499 -4.491,-2.249 -1.061,-0.557 -1.98,-1.033 -3.045,-1.562 -1.003,-0.459 -2.005,-0.918 -3.008,-1.377 -0.008,-0.248 0.123,-0.793 0.334,-1.494 -5.607,0.932 -11.213,1.864 -16.819,2.795z"/>
  </g>
 </g>
</svg>
