<?xml version="1.0" encoding="UTF-8"?>
<!DOCTYPE svg PUBLIC "-//W3C//DTD SVG 1.1//EN" "http://www.w3.org/Graphics/SVG/1.1/DTD/svg11.dtd">
<!-- Creator: CorelDRAW 2020 (64-Bit) -->
<svg xmlns="http://www.w3.org/2000/svg" xml:space="preserve" width="120px" height="120px" version="1.1" style="shape-rendering:geometricPrecision; text-rendering:geometricPrecision; image-rendering:optimizeQuality; fill-rule:evenodd; clip-rule:evenodd"
viewBox="0 0 120 120"
 xmlns:xlink="http://www.w3.org/1999/xlink"
 xmlns:xodm="http://www.corel.com/coreldraw/odm/2003">
 <defs>
  <style type="text/css">
   <![CDATA[
    .fil0 {fill:#FEFEFE}
    .fil1 {fill:#22201E;fill-rule:nonzero}
   ]]>
  </style>
 </defs>
 <g id="Слой_x0020_1">
  <metadata id="CorelCorpID_0Corel-Layer"/>
  <g id="_2041926287312">
   <g>
    <rect class="fil0" x="0.367" y="-0.543" width="120" height="120" rx="11.363" ry="11.363"/>
   </g>
   <path class="fil1" d="M40.468 95.138c0,0.758 0.615,1.373 1.373,1.373l13.723 0c0.758,0 1.373,-0.615 1.373,-1.373 0,-0.757 -0.615,-1.372 -1.373,-1.372l-13.723 0c-0.758,0 -1.373,0.615 -1.373,1.372zm51.463 -53.521l-18.526 0 0 -19.899c-0.003,-2.652 -2.152,-4.801 -4.804,-4.804l-39.798 0c-2.652,0.003 -4.8,2.152 -4.803,4.804l0 75.479c0.003,2.652 2.151,4.8 4.803,4.803l39.798 0c2.652,-0.003 4.801,-2.151 4.804,-4.803l0 -19.899 18.526 0c2.652,-0.003 4.801,-2.152 4.804,-4.804l0 -26.074c-0.003,-2.652 -2.152,-4.801 -4.804,-4.803zm-2.058 23.33l-9.606 0c-0.758,0 -1.373,0.615 -1.373,1.372l0 4.117c0,0.757 0.615,1.372 1.373,1.372l9.606 0c0.757,0 1.372,-0.615 1.372,-1.372l0 -4.117c0,-0.757 -0.615,-1.372 -1.372,-1.372zm-41.701 -14.978l0 6.137 3.95 0c1.166,0 2.149,-0.375 2.949,-1.125 0.8,-0.75 1.2,-1.708 1.2,-2.875 0,-2.733 -1.466,-4.099 -4.4,-4.099l-3.699 0 0 1.962zm-8.807 21.18c-2.433,0 -3.65,-1.117 -3.65,-3.35 0,-2.233 1.2,-3.35 3.6,-3.35l2.157 0 0 -14.43 0 -4.762c0,-0.967 0.325,-1.758 0.975,-2.375 0.65,-0.616 1.492,-0.925 2.525,-0.925l7.749 0c3.167,0 5.725,0.917 7.675,2.75 1.95,1.833 2.924,4.333 2.924,7.5 0,2.899 -0.883,5.274 -2.65,7.124 -1.766,1.85 -4.082,2.775 -6.949,2.775l-5.549 0 0 2.343 11.139 0c2.366,0 3.549,1.134 3.549,3.4 0,2.2 -1.183,3.3 -3.549,3.3l-11.139 0 0 1.868c0,2.366 -1.134,3.549 -3.4,3.549 -2.2,0 -3.3,-1.183 -3.3,-3.549l0 -1.868 -2.107 0zm49.136 -2.085l-6.862 0 0 -1.373 6.862 0 0 1.373zm-33.323 -49.405l-0.686 2.745 -11.579 0 -0.686 -2.745 12.951 0zm15.482 77.538c-0.001,1.136 -0.922,2.058 -2.059,2.058l-39.798 0c-1.136,0 -2.057,-0.922 -2.058,-2.058l0 -75.479c0.001,-1.137 0.922,-2.058 2.058,-2.059l10.593 0 1.113 4.449c0.153,0.612 0.702,1.041 1.332,1.041l13.723 0c0.63,0 1.178,-0.429 1.331,-1.041l1.114 -4.449 10.592 0c1.137,0.001 2.058,0.922 2.059,2.059l0 19.899 -8.566 0c0.225,0.184 0.445,0.378 0.661,0.581 0.712,0.669 1.319,1.393 1.83,2.163l27.346 0c1.137,0.001 2.058,0.922 2.059,2.059l0 2.058 -27.642 0c0.21,0.887 0.338,1.805 0.39,2.745l27.252 0 0 4.117 -27.53 0c-0.193,0.95 -0.48,1.868 -0.868,2.745l28.398 0 0 14.409c-0.001,1.137 -0.922,2.058 -2.059,2.059l-31.737 0c-0.288,0.026 -0.582,0.04 -0.883,0.04l-7.827 0c-0.16,0.915 -0.463,1.738 -0.895,2.45 0.485,0.164 1.004,0.254 1.544,0.255l18.527 0 0 19.899z"/>
  </g>
 </g>
</svg>
