<?xml version="1.0" encoding="UTF-8"?>
<!DOCTYPE svg PUBLIC "-//W3C//DTD SVG 1.1//EN" "http://www.w3.org/Graphics/SVG/1.1/DTD/svg11.dtd">
<!-- Creator: CorelDRAW 2020 (64-Bit) -->
<svg xmlns="http://www.w3.org/2000/svg" xml:space="preserve" width="120px" height="120px" version="1.1" style="shape-rendering:geometricPrecision; text-rendering:geometricPrecision; image-rendering:optimizeQuality; fill-rule:evenodd; clip-rule:evenodd"
viewBox="0 0 120 120"
 xmlns:xlink="http://www.w3.org/1999/xlink"
 xmlns:xodm="http://www.corel.com/coreldraw/odm/2003">
 <defs>
  <style type="text/css">
   <![CDATA[
    .fil0 {fill:#FEFEFE}
    .fil1 {fill:#22201E;fill-rule:nonzero}
   ]]>
  </style>
 </defs>
 <g id="Слой_x0020_1">
  <metadata id="CorelCorpID_0Corel-Layer"/>
  <g id="_2040556337312">
   <g>
    <rect class="fil0" x="-0.026" y="-0.003" width="120" height="120" rx="11.363" ry="11.363"/>
   </g>
   <g>
    <polygon class="fil1" points="37.657,90.189 40.446,90.189 40.446,87.4 37.657,87.4 "/>
    <path class="fil1" d="M69.738 70.661l-23.712 0 0 -20.922c0,-0.77 -0.625,-1.395 -1.395,-1.395l-25.107 0c-0.77,0 -1.395,0.625 -1.395,1.395l0 44.635c0,0.77 0.625,1.395 1.395,1.395l50.214 0c0.77,0 1.395,-0.625 1.395,-1.395l0 -22.318c0,-0.77 -0.625,-1.395 -1.395,-1.395zm-15.343 2.79l5.579 0 0 5.579 -5.579 0 0 -5.579zm-25.107 -22.318l5.579 0 0 5.58 -5.579 0 0 -5.58zm-8.369 0l5.579 0 0 6.975c0,0.769 0.625,1.395 1.395,1.395l8.369 0c0.77,0 1.395,-0.626 1.395,-1.395l0 -6.975 5.579 0 0 19.528 -22.317 0 0 -19.528zm8.369 22.318l5.579 0 0 5.579 -5.579 0 0 -5.579zm-8.369 0l5.579 0 0 6.974c0,0.77 0.625,1.395 1.395,1.395l8.369 0c0.77,0 1.395,-0.625 1.395,-1.395l0 -6.974 5.579 0 0 19.528 -22.317 0 0 -19.528zm47.424 19.528l-22.317 0 0 -19.528 5.579 0 0 6.974c0,0.77 0.625,1.395 1.395,1.395l8.369 0c0.77,0 1.395,-0.625 1.395,-1.395l0 -6.974 5.579 0 0 19.528z"/>
    <polygon class="fil1" points="62.764,90.189 65.554,90.189 65.554,87.4 62.764,87.4 "/>
    <polygon class="fil1" points="37.657,67.872 40.446,67.872 40.446,65.082 37.657,65.082 "/>
    <path class="fil1" d="M100.098 28.777c0.107,0.026 0.217,0.039 0.327,0.039 0.498,0 0.957,-0.265 1.208,-0.695 0.126,-0.222 0.192,-0.476 0.187,-0.732l0 -5.547c0,-0.645 -0.441,-1.206 -1.068,-1.356l-40.451 -9.764c-0.214,-0.052 -0.439,-0.052 -0.654,0l-40.45 9.764c-0.627,0.15 -1.068,0.711 -1.068,1.356l0 5.539c-0.005,0.292 0.079,0.579 0.24,0.823 0.326,0.48 0.917,0.709 1.481,0.573l2.463 -0.595 0 17.372 2.79 0 0 -18.045 34.871 -8.417 34.872 8.417 0 65.47 -8.37 0 0 -54.399c0,-0.77 -0.624,-1.395 -1.394,-1.395l-50.215 0c-0.77,0 -1.395,0.625 -1.395,1.395l0 5.579c0,0.77 0.625,1.395 1.395,1.395l48.82 0 0 2.79 -34.871 0 0 2.789 34.871 0 0 2.79 -34.871 0 0 2.79 34.871 0 0 2.79 -34.871 0 0 2.789 34.871 0 0 30.687 -9.764 0 0 2.79 27.897 0 0 -2.79 -4.185 0 0 -64.797 2.463 0.595zm-63.836 13.987l0 -2.789 47.425 0 0 2.789 -47.425 0zm23.712 -26.502c-0.11,0 -0.219,0.013 -0.327,0.039l-38.728 9.348 0 -2.709 39.055 -9.428 39.056 9.428 0 2.709 -38.729 -9.348c-0.107,-0.026 -0.217,-0.039 -0.327,-0.039z"/>
    <path class="fil1" d="M62.764 33c2.311,0 4.185,-1.873 4.185,-4.184 0,-2.311 -1.874,-4.185 -4.185,-4.185l-5.579 0c-2.312,0 -4.185,1.874 -4.185,4.185 0,2.311 1.873,4.184 4.185,4.184l5.579 0zm-6.974 -4.184c0.001,-0.77 0.625,-1.394 1.395,-1.395l5.579 0c0.77,0 1.395,0.625 1.395,1.395 0,0.77 -0.625,1.395 -1.395,1.395l-5.579 0c-0.77,-0.001 -1.394,-0.625 -1.395,-1.395z"/>
   </g>
  </g>
 </g>
</svg>
